<svg xmlns="http://www.w3.org/2000/svg" viewBox="0 0 258.69 68.17"><defs><style>.cls-1,.cls-2{fill:#333;}.cls-1{fill-rule:evenodd;}</style></defs><title>grow-logo-dark</title><g id="Layer_2" data-name="Layer 2"><g id="Layer_1-2" data-name="Layer 1"><polygon class="cls-1" points="218.36 51.93 206.13 16.49 212.82 16.49 221.23 42.58 229.89 16.39 235.13 16.39 243.78 42.58 252.19 16.49 258.69 16.49 246.45 51.93 241.07 51.93 232.41 26.64 223.75 51.93 218.36 51.93"/><path class="cls-1" d="M184.44,15.89A18,18,0,0,0,166,34.08v.1a18.43,18.43,0,0,0,36.85-.1V34A17.87,17.87,0,0,0,184.44,15.89Zm11.88,18.29c0,6.84-4.89,12.37-11.88,12.37s-12-5.63-12-12.47V34c0-6.83,4.89-12.36,11.88-12.36s12,5.63,12,12.46Z"/><path class="cls-1" d="M150.81,38.36c4.89-1.41,8.36-4.88,8.36-10.66v-.1A10.63,10.63,0,0,0,156.25,20c-2.26-2.21-5.74-3.52-10.17-3.52H130.37V51.68h6.2V39.41h7.75L153,51.68h7.35Zm-14.24-4.43V22.12h9c4.58,0,7.3,2.06,7.3,5.83v.1c0,3.57-2.82,5.88-7.25,5.88Z"/><path class="cls-1" d="M105.87,52.28c-11,0-18.27-7.84-18.27-18.1v-.1a17.93,17.93,0,0,1,18.17-18.19c6.14,0,9.92,1.71,13.54,4.77l-3.92,4.68a14,14,0,0,0-9.87-3.72C99,21.62,94.09,27.25,94.09,34v.1c0,7.24,4.79,12.57,12,12.57A14.44,14.44,0,0,0,114.58,44V37.45h-9V32h15V46.8A22.44,22.44,0,0,1,105.87,52.28Z"/><path class="cls-2" d="M58.18,58.18a34.12,34.12,0,0,1-10.83,7.31,33.29,33.29,0,0,1-6.39,2,34.23,34.23,0,0,1-13.75,0A33.8,33.8,0,0,1,15,62.35a34.91,34.91,0,0,1-3.89-3.06,19.64,19.64,0,0,0,4.59.52c.45,0,.91,0,1.39,0,5.62-.35,12.5-2.82,21-7.55,1.16-.64,2.31-1.23,3.47-1.76a30.7,30.7,0,0,0,9.1,3.28,21.88,21.88,0,0,0,3.79.33,20.86,20.86,0,0,0,8.37-1.76l-.54.83A34.15,34.15,0,0,1,58.18,58.18ZM7.66,39.56c3.27-3,6.45-4.67,9.47-5a9.61,9.61,0,0,1,4.44.63,14.28,14.28,0,0,1,4.86,3.35c-.46.44-.95.85-1.44,1.25a79,79,0,0,1-9.42,6.57A51.83,51.83,0,0,1,8.26,50a25.31,25.31,0,0,1-3.68,1.15,33.81,33.81,0,0,1-1.9-3.81c-.2-.46-.38-.92-.55-1.39A41.27,41.27,0,0,1,7.66,39.56Zm-7-12.35A33.82,33.82,0,0,1,5.82,15,34.12,34.12,0,0,1,27.21.69,34.6,34.6,0,0,1,41,.69,34.14,34.14,0,0,1,65.49,20.82a33.29,33.29,0,0,1,2,6.39,34.36,34.36,0,0,1,.06,13.48,64.23,64.23,0,0,0-5.13-7c-4.75-5.57-9.5-8.69-14.14-9.28a12.26,12.26,0,0,0-6.28.83,17.43,17.43,0,0,0-6.13,4.43c-2.13,2.29-4.32,4.46-6.53,6.47l-.21-.21c-3.78-3.78-7.93-5.49-12.34-5.07-6.84.66-12.59,6.35-16,10.6,0-.16-.07-.32-.1-.47a34.6,34.6,0,0,1,0-13.75ZM50.62,47.4a30.8,30.8,0,0,1,9.28-.61,24.14,24.14,0,0,1,4.06.72,19.92,19.92,0,0,1-4.61,2.06,17.15,17.15,0,0,1-8,.43,23.25,23.25,0,0,1-4.94-1.46,37.55,37.55,0,0,1,4.19-1.14ZM41.45,46a62.41,62.41,0,0,1-9.39-7.25c2.23-2,4.41-4.21,6.57-6.52a13.52,13.52,0,0,1,4.77-3.5,8.45,8.45,0,0,1,4.38-.59,13.61,13.61,0,0,1,6.09,2.65,32.11,32.11,0,0,1,5.64,5.34A60.82,60.82,0,0,1,65,43.88a27.55,27.55,0,0,0-4.51-.83,34.3,34.3,0,0,0-10.51.6,45.3,45.3,0,0,0-8.18,2.57L41.45,46ZM7.92,54.15a50.56,50.56,0,0,0,9.57-4.48,83.56,83.56,0,0,0,9.88-6.89c.61-.5,1.23-1,1.84-1.53a70.15,70.15,0,0,0,8.57,6.88c-.49.25-1,.51-1.46.78-8,4.45-14.39,6.77-19.43,7.08A17.67,17.67,0,0,1,7.92,54.15Z"/></g></g></svg>