<?xml version="1.0" encoding="utf-8"?>
<!-- Generator: Adobe Illustrator 23.0.0, SVG Export Plug-In . SVG Version: 6.00 Build 0)  -->
<svg version="1.1" id="Layer_1" xmlns="http://www.w3.org/2000/svg" xmlns:xlink="http://www.w3.org/1999/xlink" x="0px" y="0px"
	 viewBox="0 0 256 68" style="enable-background:new 0 0 256 68;" xml:space="preserve">
<style type="text/css">
	.st0{fill-rule:evenodd;clip-rule:evenodd;fill:#333333;}
	.st1{fill:url(#SVGID_1_);}
</style>
<g>
	<g>
		<polygon class="st0" points="216.09,51.8 203.99,16.45 210.61,16.45 218.93,42.47 227.5,16.35 232.68,16.35 241.25,42.47 
			249.57,16.45 256,16.45 243.89,51.8 238.56,51.8 229.99,26.58 221.42,51.8 		"/>
		<path class="st0" d="M182.52,15.85c-10.71,0-18.28,8.27-18.28,18.15v0.1c0,9.88,7.47,18.05,18.18,18.05
			c10.71,0,18.28-8.27,18.28-18.15v-0.1C200.71,24.02,193.23,15.85,182.52,15.85z M194.28,34.1c0,6.82-4.83,12.34-11.76,12.34
			c-6.93,0-11.86-5.62-11.86-12.44v-0.1c0-6.82,4.83-12.34,11.76-12.34c6.93,0,11.86,5.62,11.86,12.44V34.1z"/>
		<path class="st0" d="M149.25,38.26c4.83-1.4,8.27-4.86,8.27-10.63v-0.1c0-3.06-1.05-5.67-2.89-7.57
			c-2.24-2.21-5.68-3.51-10.06-3.51h-15.54v35.1h6.13V39.32h7.67l8.57,12.24h7.27L149.25,38.26z M135.15,33.85V22.07h8.92
			c4.53,0,7.22,2.06,7.22,5.82v0.1c0,3.56-2.79,5.87-7.17,5.87H135.15z"/>
		<path class="st0" d="M104.77,52.15c-10.91,0-18.09-7.82-18.09-18.05V34c0-9.83,7.47-18.15,17.99-18.15c6.08,0,9.81,1.7,13.4,4.76
			l-3.89,4.66c-2.69-2.26-5.33-3.71-9.77-3.71c-6.43,0-11.31,5.62-11.31,12.34V34c0,7.22,4.73,12.54,11.86,12.54
			c3.29,0,6.28-1.05,8.42-2.66v-6.52h-8.92v-5.42h14.85v14.74C115.88,49.65,110.95,52.15,104.77,52.15z"/>
	</g>
	<linearGradient id="SVGID_1_" gradientUnits="userSpaceOnUse" x1="50.699" y1="63.3908" x2="16.761" y2="4.6084">
		<stop  offset="4.206731e-04" style="stop-color:#11EEBB"/>
		<stop  offset="0.0927" style="stop-color:#1FF1BE"/>
		<stop  offset="0.3355" style="stop-color:#3EF7C4"/>
		<stop  offset="0.5721" style="stop-color:#54FBC8"/>
		<stop  offset="0.7976" style="stop-color:#61FECB"/>
		<stop  offset="1" style="stop-color:#66FFCC"/>
	</linearGradient>
	<path class="st1" d="M57.58,58.04c-3.08,3.1-6.72,5.58-10.72,7.29c-2.04,0.87-4.16,1.53-6.33,1.98c-4.49,0.92-9.12,0.92-13.6,0
		c-4.31-0.89-8.41-2.63-12.05-5.11c-1.35-0.92-2.64-1.94-3.85-3.05c1.49,0.35,3.01,0.53,4.54,0.52c0.44,0,0.9-0.01,1.38-0.04
		c5.56-0.35,12.37-2.81,20.82-7.53c1.15-0.64,2.29-1.23,3.43-1.76c3.1,1.67,6.12,2.77,9.01,3.27c1.24,0.22,2.5,0.33,3.75,0.33
		c2.83,0,5.58-0.58,8.28-1.75c-0.17,0.28-0.35,0.55-0.53,0.82C60.49,54.81,59.11,56.5,57.58,58.04z M7.58,39.47
		c3.23-2.99,6.38-4.66,9.37-4.95c1.49-0.14,3,0.07,4.4,0.63c1.63,0.64,3.25,1.77,4.81,3.34c-0.45,0.45-0.94,0.85-1.43,1.25
		c-3.1,2.52-6.24,4.73-9.32,6.55c-2.53,1.5-4.96,2.71-7.24,3.6c-1.65,0.65-2.84,0.98-3.63,1.16c-0.71-1.23-1.34-2.5-1.89-3.81
		c-0.19-0.46-0.37-0.92-0.54-1.38C3.21,44.26,5.14,41.74,7.58,39.47z M0.69,27.15c0.88-4.35,2.61-8.48,5.07-12.15
		C9.42,9.52,14.58,5.24,20.6,2.67c2.04-0.87,4.16-1.53,6.33-1.98c4.49-0.92,9.12-0.92,13.6,0c4.31,0.89,8.41,2.63,12.05,5.11
		c5.42,3.69,9.67,8.89,12.22,14.96c0.86,2.06,1.52,4.19,1.96,6.38c0.9,4.44,0.91,9.01,0.05,13.45c-1.33-2.13-3.05-4.61-5.08-7.01
		c-4.7-5.56-9.4-8.68-13.99-9.26c-2.11-0.27-4.25,0.01-6.22,0.83c-2.11,0.87-4.15,2.35-6.06,4.42c-2.12,2.29-4.28,4.45-6.46,6.46
		c-0.07-0.07-0.14-0.14-0.21-0.21c-3.74-3.77-7.85-5.48-12.22-5.05C9.83,31.41,4.14,37.09,0.78,41.33c-0.03-0.16-0.07-0.31-0.1-0.47
		C-0.23,36.33-0.23,31.67,0.69,27.15L0.69,27.15z M50.09,47.28c3.18-0.68,6.27-0.88,9.19-0.61c1.36,0.13,2.7,0.37,4.02,0.72
		c-1.52,0.92-3.03,1.6-4.56,2.06c-2.56,0.77-5.15,0.91-7.9,0.43c-1.58-0.27-3.21-0.76-4.9-1.46C47.3,47.96,48.69,47.58,50.09,47.28
		L50.09,47.28z M41.02,45.88c-2.94-1.81-6.05-4.24-9.29-7.24c2.2-2.03,4.36-4.19,6.49-6.5c1.53-1.66,3.12-2.84,4.73-3.49
		c1.42-0.58,2.84-0.77,4.34-0.58c1.91,0.24,3.94,1.13,6.03,2.64c1.83,1.32,3.7,3.11,5.58,5.33c2.28,2.7,4.17,5.59,5.47,7.74
		c-1.46-0.4-2.95-0.68-4.46-0.83c-3.32-0.35-6.82-0.14-10.4,0.6c-2.66,0.56-5.37,1.42-8.1,2.57C41.28,46.03,41.15,45.96,41.02,45.88
		L41.02,45.88z M7.84,54.02c2.25-0.75,5.44-2.09,9.47-4.48c3.24-1.92,6.53-4.23,9.78-6.87c0.61-0.5,1.22-1,1.82-1.52
		c2.92,2.72,5.75,5.02,8.48,6.86c-0.48,0.25-0.96,0.51-1.44,0.78c-7.95,4.44-14.24,6.75-19.23,7.06
		C12.79,56.1,10.24,55.07,7.84,54.02z"/>
</g>
</svg>
