<?xml version="1.0" encoding="UTF-8"?>
<svg width="49px" height="49px" viewBox="0 0 49 49" version="1.1" xmlns="http://www.w3.org/2000/svg" xmlns:xlink="http://www.w3.org/1999/xlink">
    <!-- Generator: Sketch 61.2 (89653) - https://sketch.com -->
    <title>Group</title>
    <desc>Created with Sketch.</desc>
    <g id="homepage" stroke="none" stroke-width="1" fill="none" fill-rule="evenodd">
        <g id="Home-v2-Copy-5" transform="translate(-343.000000, -3311.000000)" stroke="#11EEBB" stroke-width="2">
            <g id="Group-29" transform="translate(218.000000, 3209.000000)">
                <g id="Group-17" transform="translate(79.000000, 103.000000)">
                    <g id="Group" transform="translate(47.000000, 0.000000)">
                        <path d="M46.9788,4.736 C46.9788,2.1236 44.8608,0.006 42.2484,0.006 L5.7092,0.006 C3.0966,0.006 0.9788,2.1238 0.9788,4.736 L0.9788,41.276 C0.9788,43.8884 3.0968,46.006 5.7092,46.006 L42.2482,46.006 C44.8608,46.006 46.9786,43.8882 46.9786,41.276 L46.9786,4.736 L46.9788,4.736 Z" id="Shape"></path>
                        <circle id="Oval" cx="12.7314" cy="24.4404" r="2.5866"></circle>
                        <circle id="Oval" cx="24.0496" cy="33.9252" r="2.5866"></circle>
                        <circle id="Oval" cx="35.368" cy="14.9362" r="2.5866"></circle>
                        <line x1="37.3438" y1="16.5954" x2="46.9788" y2="24.7608" id="Shape"></line>
                        <line x1="25.3718" y1="31.707" x2="34.0474" y2="17.1516" id="Shape"></line>
                        <line x1="14.7106" y1="26.099" x2="22.0726" y2="32.2684" id="Shape"></line>
                        <line x1="0.9788" y1="34.2514" x2="10.7494" y2="26.099" id="Shape"></line>
                    </g>
                </g>
            </g>
        </g>
    </g>
</svg>