<?xml version="1.0" encoding="UTF-8"?>
<svg width="48px" height="48px" viewBox="0 0 48 48" version="1.1" xmlns="http://www.w3.org/2000/svg" xmlns:xlink="http://www.w3.org/1999/xlink">
    <!-- Generator: Sketch 61.2 (89653) - https://sketch.com -->
    <title>Group</title>
    <desc>Created with Sketch.</desc>
    <g id="homepage" stroke="none" stroke-width="1" fill="none" fill-rule="evenodd">
        <g id="Home-v2-Copy-5" transform="translate(-345.000000, -3671.000000)" stroke="#11EEBB" stroke-width="2">
            <g id="Group-29-Copy-3" transform="translate(218.000000, 3569.000000)">
                <g id="Group-17" transform="translate(127.000000, 102.000000)">
                    <g id="Group">
                        <path d="M23.9988,1.3762 C11.501,1.3762 1.336,11.5414 1.336,24.039 C1.336,36.535 11.5012,46.702 23.9988,46.702 C36.4948,46.702 46.6618,36.535 46.6618,24.039 C46.6618,11.5412 36.4948,1.3762 23.9988,1.3762 L23.9988,1.3762 Z" id="Shape"></path>
                        <path d="M39.8654,40.197 C34.4468,38.4656 28.9548,38.4296 28.4546,36.8262 L28.4546,34.1924 C34.3032,34.1764 36.624,32.286 36.624,32.286 C34.1834,30.8994 33.4096,21.2126 33.4096,21.2126 C33.4096,16.1704 29.6414,11.3148 23.999,11.3148 C18.6416,11.3148 14.5882,15.9024 14.5882,21.2126 C14.5882,21.2126 13.8144,30.8994 11.3738,32.286 C11.3738,32.286 13.6944,34.1762 19.543,34.1924 L19.543,36.8262 C19.044,38.4278 13.5496,38.464 8.1302,40.1972" id="Shape"></path>
                    </g>
                </g>
            </g>
        </g>
    </g>
</svg>