<?xml version="1.0" encoding="UTF-8"?>
<svg width="56px" height="33px" viewBox="0 0 56 33" version="1.1" xmlns="http://www.w3.org/2000/svg" xmlns:xlink="http://www.w3.org/1999/xlink">
    <!-- Generator: Sketch 61.2 (89653) - https://sketch.com -->
    <title>Group</title>
    <desc>Created with Sketch.</desc>
    <g id="homepage" stroke="none" stroke-width="1" fill="none" fill-rule="evenodd">
        <g id="Home-v2-Copy-5" transform="translate(-691.000000, -3679.000000)" stroke="#11EEBB" stroke-width="2">
            <g id="Group-29-Copy-4" transform="translate(569.000000, 3569.000000)">
                <g id="Group-17" transform="translate(122.000000, 110.000000)">
                    <g id="Group">
                        <line x1="38.0282" y1="23.3874667" x2="33.0311333" y2="19.1905" id="Shape"></line>
                        <line x1="33.4359667" y1="25.9315" x2="29.3622" y2="22.5971667" id="Shape"></line>
                        <path d="M11.1937,17.1217667 C12.6434,21.2888667 24.318,30.3102333 24.318,30.3102333 C27.1334,32.6928 29.6783667,29.0563 27.3637,27.0972333 L25.5889667,25.3747667" id="Shape"></path>
                        <path d="M25.5887333,25.3747667 L30.4166333,29.5670667 C33.194,31.9176667 35.9032333,28.0826 33.6084,26.1405667 L34.8261667,27.1709667 C37.2537667,29.2254667 40.4492667,25.4363667 38.0282,23.3874667 L38.2162667,23.5466 C40.6445667,25.6015667 43.8393667,21.812 41.4180667,19.7631 L29.4672,10.0186333 C29.4672,10.0186333 27.1616333,10.9022667 26.2700667,10.6474667 C26.2700667,10.6474667 22.8291,15.925 20.3133,14.0907667 C17.7975,12.2565333 20.3130667,4.44686667 27.3849333,3.33106667 C27.3849333,3.33106667 30.5676,2.42363333 38.3623333,6.44093333 L41.2519333,5.56593333" id="Shape"></path>
                        <polygon id="Rectangle-path" transform="translate(8.090871, 11.923551) rotate(195.812395) translate(-8.090871, -11.923551) " points="3.68885021 2.80834663 12.4928914 2.80834663 12.4928914 21.0387555 3.68885021 21.0387555"></polygon>
                        <polygon id="Rectangle-path" transform="translate(47.937109, 12.392119) rotate(-15.812395) translate(-47.937109, -12.392119) " points="43.535088 3.2769148 52.3391292 3.2769148 52.3391292 21.5073237 43.535088 21.5073237"></polygon>
                        <path d="M14.4748333,5.5349 C14.4748333,5.5349 14.8852667,4.78963333 23.8697667,4.59456667" id="Shape"></path>
                        <path d="M42.189,21.0081667 C42.189,21.0081667 44.4159333,21.5852 45.5844667,20.2498333" id="Shape"></path>
                    </g>
                </g>
            </g>
        </g>
    </g>
</svg>